<svg xmlns="http://www.w3.org/2000/svg" width="44.527" height="76.824" viewBox="0 0 44.527 76.824">
  <g id="Arrow_1" data-name="Arrow 1" transform="translate(0 0)">
    <g id="Union_1" data-name="Union 1" transform="translate(2714.514 -2.486)">
      <path d="M -2675.987548828125 78.81002807617188 C -2677.456787109375 78.81002807617188 -2678.838134765625 78.23801422119141 -2679.877197265625 77.19937896728516 L -2711.305419921875 45.7703857421875 L -2711.3466796875 45.7290153503418 L -2711.396484375 45.69831466674805 C -2711.7607421875 45.47385406494141 -2712.099609375 45.20566558837891 -2712.404052734375 44.90119552612305 C -2713.47216796875 43.83300399780273 -2714.043701171875 42.41259384155273 -2714.01318359375 40.90157699584961 L -2714.01318359375 40.89203643798828 L -2714.01318359375 40.88249588012695 C -2714.04052734375 39.37582397460938 -2713.468505859375 37.95954513549805 -2712.403076171875 36.89453506469727 C -2712.099853515625 36.59091567993164 -2711.76220703125 36.32345581054688 -2711.3994140625 36.09934616088867 L -2711.349853515625 36.0687141418457 L -2711.30859375 36.02750396728516 L -2679.877197265625 4.596155166625977 C -2678.838134765625 3.5575852394104 -2677.456787109375 2.985575199127197 -2675.987548828125 2.985575199127197 C -2674.5185546875 2.985575199127197 -2673.137451171875 3.557555198669434 -2672.098876953125 4.596165180206299 C -2671.059814453125 5.635185241699219 -2670.48779296875 7.016465187072754 -2670.48779296875 8.48554515838623 C -2670.48779296875 9.954585075378418 -2671.059814453125 11.33560562133789 -2672.098876953125 12.37419509887695 L -2700.2685546875 40.54380416870117 L -2700.6220703125 40.89735412597656 L -2700.2685546875 41.25090408325195 L -2672.09814453125 69.42135620117188 C -2669.9541015625 71.56537628173828 -2669.9541015625 75.05464172363281 -2672.09814453125 77.19951629638672 C -2673.136962890625 78.238037109375 -2674.518310546875 78.81002807617188 -2675.987548828125 78.81002807617188 Z" stroke="none"/>
      <path d="M -2675.987548828125 78.31002807617188 C -2674.65185546875 78.31002807617188 -2673.39599609375 77.79003143310547 -2672.451904296875 76.84600830078125 C -2670.502685546875 74.89609527587891 -2670.502685546875 71.72402191162109 -2672.45166015625 69.77490997314453 L -2701.329345703125 40.89735412597656 L -2700.6220703125 40.19024276733398 L -2672.452392578125 12.02057647705078 C -2671.5078125 11.07642078399658 -2670.98779296875 9.820987701416016 -2670.98779296875 8.485531806945801 C -2670.98779296875 7.150009632110596 -2671.5078125 5.894287586212158 -2672.452392578125 4.949720859527588 C -2673.396728515625 4.00555419921875 -2674.652099609375 3.485576391220093 -2675.987548828125 3.485576391220093 C -2677.3232421875 3.485576391220093 -2678.5791015625 4.005609512329102 -2679.523681640625 4.949709892272949 L -2711.037353515625 36.46347808837891 L -2711.136474609375 36.52471923828125 C -2711.46630859375 36.72847747802734 -2711.7734375 36.97171020507812 -2712.049560546875 37.24815368652344 C -2713.018310546875 38.21630859375 -2713.5380859375 39.50382232666016 -2713.513427734375 40.87348556518555 L -2713.512939453125 40.892578125 L -2713.513427734375 40.91165542602539 C -2713.541015625 42.28530883789062 -2713.021484375 43.57657623291016 -2712.05029296875 44.54769897460938 C -2711.7734375 44.82469940185547 -2711.465087890625 45.06862258911133 -2711.13427734375 45.27268600463867 L -2711.03466796875 45.33409881591797 L -2710.951904296875 45.41683197021484 L -2679.523681640625 76.84573364257812 C -2678.5791015625 77.79000091552734 -2677.3232421875 78.31002807617188 -2675.987548828125 78.31002807617188 M -2675.987548828125 79.31002807617188 C -2677.523193359375 79.31002807617188 -2679.058837890625 78.72435760498047 -2680.230712890625 77.55300140380859 L -2711.658935546875 46.12393188476562 C -2712.049560546875 45.88312149047852 -2712.4189453125 45.59342193603516 -2712.757568359375 45.25469970703125 C -2713.959716796875 44.05260848999023 -2714.544921875 42.46706390380859 -2714.51318359375 40.89151000976562 C -2714.54150390625 39.32002258300781 -2713.9560546875 37.73985290527344 -2712.756591796875 36.54089736938477 C -2712.419189453125 36.20317459106445 -2712.05126953125 35.91434478759766 -2711.662109375 35.67395401000977 L -2680.230712890625 4.242598533630371 C -2677.88720703125 1.900084853172302 -2674.08837890625 1.899712800979614 -2671.745361328125 4.242598533630371 C -2669.40185546875 6.586198329925537 -2669.40185546875 10.38509845733643 -2671.745361328125 12.72779846191406 L -2699.9150390625 40.89735412597656 L -2671.74462890625 69.06779479980469 C -2669.40185546875 71.41049957275391 -2669.40185546875 75.20941162109375 -2671.74462890625 77.55300140380859 C -2672.916259765625 78.72435760498047 -2674.451904296875 79.31002807617188 -2675.987548828125 79.31002807617188 Z" stroke="none" fill="#707070"/>
    </g>
  </g>
</svg>
